<?xml version="1.0" encoding="utf-8"?>
<!-- Generator: Adobe Illustrator 18.1.1, SVG Export Plug-In . SVG Version: 6.00 Build 0)  -->
<!DOCTYPE svg PUBLIC "-//W3C//DTD SVG 1.1//EN" "http://www.w3.org/Graphics/SVG/1.1/DTD/svg11.dtd">
<svg version="1.1" id="Layer_1" xmlns="http://www.w3.org/2000/svg" xmlns:xlink="http://www.w3.org/1999/xlink" x="0px" y="0px"
	 width="216px" height="216px" viewBox="0 0 216 216" enable-background="new 0 0 216 216" xml:space="preserve">
<g>
	<g>
		<path fill="#010101" stroke="#010101" stroke-miterlimit="10" d="M168.1,88.1c2.1,8,3.4,16.8,3.4,25.7c0,0.9,0,2.1,0,3.1l10.4,4
			l8.6-7.3l6.7,8L184,132.2l-13.5-5.5c-1.5,11.9-5.2,23.3-10.4,32.7l1.8-2.4l10.1,5.8l9.8-5.8l5.5,8.9l-14.4,8.9l-15.9-9.5
			c-12.5,19.3-31.8,31.8-53.6,31.8c-21.7,0-41-12.5-53.6-31.8l-15.6,9.2l-14.4-8.9l5.5-8.9l9.8,5.8l10.1-5.8l0.6,0.9
			c-4.9-9.2-8.3-19.9-9.5-31.2l-13.2,5.2l-13.2-10.7l6.7-8l8.6,7.3l10.1-4c0-1.2,0-2.1,0-3.4c0-8.9,1.2-17.4,3.4-25.7l-17.1-0.6
			l-7.3-15l9.2-4.6l4.9,10.1l11.6,0.6l0.3,3.4c7-20.8,20.8-37.6,38-45.9c0.3-6.4,5.5-11.6,12.2-11.6h28.5c6.7,0,12.2,5.5,12.2,12.2
			c0,0.3,0,0.6,0,0.9c16.2,8.9,29.1,25.4,35.5,45.6l0.3-4.6l11.6-0.6l4.9-10.1l9.2,4.6l-7.3,15L168.1,88.1z"/>
		<polygon fill="#010101" stroke="#010101" stroke-miterlimit="10" points="137.8,13.7 136.6,17.4 134.4,18.3 130.1,19.5 
			126.5,21.7 121.3,24.4 121.3,21.7 127.1,17.4 131.4,16.2 135,13.7 137.2,9.4 141.1,7.9 140.2,11.9 		"/>
		<polygon fill="#010101" stroke="#010101" stroke-miterlimit="10" points="79.3,19.5 75,18.3 72.9,17.4 71.7,13.7 69.2,11.9 
			68.3,7.9 72.3,9.4 74.4,13.7 78.1,16.2 82.4,17.4 88.2,21.7 88.2,24.4 83,21.7 		"/>
	</g>
	<text transform="matrix(1 0 0 1 -9.8746 255.6606)" fill="#010101" font-family="'HelveticaNeue-Bold'" font-size="11.336">Created by Andrey Semenenko</text>
	<text transform="matrix(1 0 0 1 -9.8746 266.9967)" fill="#010101" font-family="'HelveticaNeue-Bold'" font-size="11.336">from the Noun Project</text>
</g>
</svg>
