<?xml version="1.0" encoding="utf-8"?>
<!-- Generator: Adobe Illustrator 18.1.1, SVG Export Plug-In . SVG Version: 6.00 Build 0)  -->
<!DOCTYPE svg PUBLIC "-//W3C//DTD SVG 1.1//EN" "http://www.w3.org/Graphics/SVG/1.1/DTD/svg11.dtd">
<svg version="1.1" id="Layer_1" xmlns="http://www.w3.org/2000/svg" xmlns:xlink="http://www.w3.org/1999/xlink" x="0px" y="0px"
	 width="100px" height="100px" viewBox="-561 347 100 100" enable-background="new -561 347 100 100" xml:space="preserve">
<g>
	<path stroke="#000000" stroke-miterlimit="10" d="M-488.6,376.7c0.7,2.6,1.1,5.5,1.1,8.4c0,0.3,0,0.7,0,1l3.4,1.3l2.8-2.4l2.2,2.6
		l-4.3,3.5l-4.4-1.8c-0.5,3.9-1.7,7.6-3.4,10.7l0.6-0.8l3.3,1.9l3.2-1.9l1.8,2.9l-4.7,2.9l-5.2-3.1c-4.1,6.3-10.4,10.4-17.5,10.4
		c-7.1,0-13.4-4.1-17.5-10.4l-5.1,3l-4.7-2.9l1.8-2.9l3.2,1.9l3.3-1.9l0.2,0.3c-1.6-3-2.7-6.5-3.1-10.2l-4.3,1.7l-4.3-3.5l2.2-2.6
		l2.8,2.4l3.3-1.3c0-0.4,0-0.7,0-1.1c0-2.9,0.4-5.7,1.1-8.4l-5.6-0.2l-2.4-4.9l3-1.5l1.6,3.3l3.8,0.2l0.1,1.1
		c2.3-6.8,6.8-12.3,12.4-15c0.1-2.1,1.8-3.8,4-3.8h9.3c2.2,0,4,1.8,4,4c0,0.1,0,0.2,0,0.3c5.3,2.9,9.5,8.3,11.6,14.9l0.1-1.5
		l3.8-0.2l1.6-3.3l3,1.5l-2.4,4.9L-488.6,376.7z"/>
	<polygon stroke="#000000" stroke-miterlimit="10" points="-498.5,352.4 -498.9,353.6 -499.6,353.9 -501,354.3 -502.2,355 
		-503.9,355.9 -503.9,355 -502,353.6 -500.6,353.2 -499.4,352.4 -498.7,351 -497.4,350.5 -497.7,351.8 	"/>
	<polygon stroke="#000000" stroke-miterlimit="10" points="-517.6,354.3 -519,353.9 -519.7,353.6 -520.1,352.4 -520.9,351.8 
		-521.2,350.5 -519.9,351 -519.2,352.4 -518,353.2 -516.6,353.6 -514.7,355 -514.7,355.9 -516.4,355 	"/>
</g>
<text transform="matrix(1 0 0 1 -546.7412 431.4443)" font-family="'HelveticaNeue-Bold'" font-size="3.7037">Created by Andrey Semenenko</text>
<text transform="matrix(1 0 0 1 -546.7412 435.1484)" font-family="'HelveticaNeue-Bold'" font-size="3.7037">from the Noun Project</text>
</svg>
