<svg xmlns="http://www.w3.org/2000/svg" width="216" height="216" viewBox="0 0 216 216"><g fill="#010101"><g stroke="#010101" stroke-miterlimit="10"><path d="M168.1 88.1c2.1 8 3.4 16.8 3.4 25.7v3.1l10.4 4 8.6-7.3 6.7 8-13.2 10.6-13.5-5.5c-1.5 11.9-5.2 23.3-10.4 32.7l1.8-2.4 10.1 5.8 9.8-5.8 5.5 8.9-14.4 8.9-15.9-9.5c-12.5 19.3-31.8 31.8-53.6 31.8-21.7 0-41-12.5-53.6-31.8l-15.6 9.2-14.4-8.9 5.5-8.9 9.8 5.8 10.1-5.8.6.9c-4.9-9.2-8.3-19.9-9.5-31.2l-13.2 5.2-13.2-10.7 6.7-8 8.6 7.3 10.1-4v-3.4c0-8.9 1.2-17.4 3.4-25.7l-17.1-.6-7.3-15 9.2-4.6 4.9 10.1 11.6.6.3 3.4c7-20.8 20.8-37.6 38-45.9.3-6.4 5.5-11.6 12.2-11.6h28.5c6.7 0 12.2 5.5 12.2 12.2v.9c16.2 8.9 29.1 25.4 35.5 45.6l.3-4.6 11.6-.6 4.9-10.1 9.2 4.6-7.3 15-17.3 1.6zM137.8 13.7l-1.2 3.7-2.2.9-4.3 1.2-3.6 2.2-5.2 2.7v-2.7l5.8-4.3 4.3-1.2 3.6-2.5 2.2-4.3 3.9-1.5-.9 4zM79.3 19.5l-4.3-1.2-2.1-.9-1.2-3.7-2.5-1.8-.9-4 4 1.5 2.1 4.3 3.7 2.5 4.3 1.2 5.8 4.3v2.7l-5.2-2.7z"/></g><text transform="translate(-9.875 255.661)" font-family="'HelveticaNeue-Bold'" font-size="11.336">Created by Andrey Semenenko</text><text transform="translate(-9.875 266.997)" font-family="'HelveticaNeue-Bold'" font-size="11.336">from the Noun Project</text></g></svg>